<svg xmlns="http://www.w3.org/2000/svg" xmlns:xlink="http://www.w3.org/1999/xlink" width="276" height="291.319" viewBox="0 0 276 291.319">
  <defs>
    <clipPath id="clip-path">
      <rect id="Rectángulo_295" data-name="Rectángulo 295" width="276" height="291.319" transform="translate(0 2156)" fill="#fff"/>
    </clipPath>
  </defs>
  <g id="figure-bg-responsable" transform="translate(0 -2156)" clip-path="url(#clip-path)">
    <path id="Trazado_106" data-name="Trazado 106" d="M933.914,401.162a13.023,13.023,0,0,0-3.2.412l-22.288-38.6a9.206,9.206,0,0,0-1.481-12.724l22.379-38.762a13.019,13.019,0,1,0-.607-24.5L906.848,249.1a9.332,9.332,0,1,0-15.552-8.637H847.4a12.993,12.993,0,0,0-18.119-10.047l-20.834-36.085a9.269,9.269,0,0,0-1.017-15.685l22.026-38.157a12.98,12.98,0,0,0,15.359-11.111h44.593a9.322,9.322,0,1,0,15.517-9.138l22.037-38.174a13.016,13.016,0,1,0-.266-24.42l-21.878-37.9A9.325,9.325,0,1,0,889.323,10.8H845.262a13.01,13.01,0,1,0-21.135,12.225L802.107,61.167a9.161,9.161,0,0,0-2.611-.417,9.311,9.311,0,0,0-9.253,8.493H749.276a13.014,13.014,0,1,0-22.217,11.443L704.04,120.559a9.2,9.2,0,0,0-2.484-.377,9.318,9.318,0,0,0-8.741,6.137H648.547a13,13,0,0,0-18.072-11.133L608.684,77.439a9.312,9.312,0,1,0-15.271-8.2H549.682A13.013,13.013,0,1,0,528.86,80.724l-21.92,37.968a9.227,9.227,0,0,0-3.169-.592,9.342,9.342,0,1,0,2.1,18.427l22.17,38.4a12.992,12.992,0,0,0,.363,20.557l-21.456,37.164a9.222,9.222,0,0,0-2.722-.45,9.318,9.318,0,0,0-9.207,8H450.6a12.974,12.974,0,0,0-17.436-9.945l-21.875-37.893a9.325,9.325,0,1,0-15.481-8.963H351.751A13.011,13.011,0,1,0,330.6,195.607l-22.026,38.148a9.208,9.208,0,0,0-2.6-.412,9.323,9.323,0,0,0-8.963,6.849H252.3A13.014,13.014,0,1,0,231.106,252.6l-21.915,37.96a9.118,9.118,0,0,0-2.593-.412,9.312,9.312,0,0,0-9.229,8.223H154.105a12.975,12.975,0,0,0-17.447-11.093l-21.9-37.935a9.326,9.326,0,1,0-15.506-9.151H55.065a13.015,13.015,0,1,0-21.21,12.4L11.8,290.788a9.278,9.278,0,0,0-2.458-.37,9.342,9.342,0,1,0,0,18.684,9.212,9.212,0,0,0,2.731-.454l22.059,38.206A13.011,13.011,0,1,0,54.7,358.772H99.164a9.3,9.3,0,0,0,10.9,6.944l22.07,38.228a13.01,13.01,0,1,0,20.727,13.008h45.034a9.319,9.319,0,1,0,15.678-9.475l22.208-38.463a12.993,12.993,0,0,0,16.583-10.24H296.4a9.326,9.326,0,1,0,15.494-8.952l21.62-37.45a13,13,0,0,0,17.784-10.4h44.593a9.135,9.135,0,0,0,11.561,6.438L429.035,345.8a13.006,13.006,0,1,0,21.315,12.979H495a9.323,9.323,0,1,0,15.561-9.648l21.764-37.7a12.967,12.967,0,0,0,16.88-8.9h44.247a9.318,9.318,0,1,0,15.541-9.47l21.714-37.614A12.977,12.977,0,0,0,648.09,244.9h43.74a9.293,9.293,0,0,0,12.946,7.037l22.476,38.926a12.982,12.982,0,0,0,1.394,20.04l-21.851,37.849a9.355,9.355,0,1,0-.27,17.35l21.966,38.046a13.011,13.011,0,1,0,20.02,12.8h44.637a9.317,9.317,0,0,0,8.961,6.846,9.223,9.223,0,0,0,3.981-.922L828,460.833a13.008,13.008,0,1,0,19.38,13.194h44.724a9.319,9.319,0,1,0,16.6-8.017l22.562-39.085a13.017,13.017,0,1,0,2.644-25.763ZM830.337,254.644a13,13,0,0,0,16.951-9.743h44.225a9.136,9.136,0,0,0,11.474,6.377l21.922,37.977a12.989,12.989,0,0,0,.5,20.147l-22.438,38.864a9.239,9.239,0,0,0-10.869,6.354H847.777a13.014,13.014,0,0,0-16.547-9.677l-22.184-38.427a9.213,9.213,0,0,0-.964-13.329ZM827.972,25.229a12.975,12.975,0,0,0,17.29-10h44.059a9.156,9.156,0,0,0,11.647,6.713L922.876,59.9a13,13,0,0,0,.217,20.014L901.1,118a9.191,9.191,0,0,0-11.864,6.948h-44.6a12.959,12.959,0,0,0-16.009-9.814L806.3,76.462a9.268,9.268,0,0,0-.343-13.1ZM730.634,83.357a12.981,12.981,0,0,0,18.73-9.681h41.51a9.339,9.339,0,0,0,8.622,5.758,9.167,9.167,0,0,0,2.611-.417l22.079,38.243a12.988,12.988,0,0,0,1.077,21.632l-22.272,38.576-.031,0a9.328,9.328,0,0,0-8.675,5.927H746.432a12.979,12.979,0,0,0-15.364-8.925l-22.452-38.89a9.22,9.22,0,0,0-.7-12.864ZM509.819,134.5a9.219,9.219,0,0,0,.816-13.351l22.155-38.374a13.012,13.012,0,0,0,16.507-9.1h44.635a9.219,9.219,0,0,0,10.8,5.78l22.028,38.15a12.978,12.978,0,0,0,1.07,20l-21.893,37.922a9.233,9.233,0,0,0-12.549,7.866h-44.3a12.976,12.976,0,0,0-17.168-10.612ZM108.213,347.218a9.331,9.331,0,0,0-9.047,7.121H54.4a12.982,12.982,0,0,0-16.284-9.446L15.9,306.4a9.285,9.285,0,0,0-.222-13.469l21.993-38.095a12.972,12.972,0,0,0,17.478-10.22H99.078a9.193,9.193,0,0,0,11.853,6.957l21.884,37.9a13.006,13.006,0,0,0,0,20l-22.024,38.148A9.181,9.181,0,0,0,108.213,347.218ZM209.924,404.93a9.237,9.237,0,0,0-12.556,7.589H153.039a12.985,12.985,0,0,0-17-10.676l-21.968-38.055a9.261,9.261,0,0,0,.844-13.721L137,311.812a12.983,12.983,0,0,0,16.72-9.012h44.172a9.323,9.323,0,0,0,8.708,6.028,9.209,9.209,0,0,0,2.25-.306l22.1,38.283a12.982,12.982,0,0,0,.869,20.207Zm119.832-94.909-21.709,37.607a9.153,9.153,0,0,0-11.645,6.713H252.361a12.971,12.971,0,0,0-17.3-9.989L213.047,306.22a9.281,9.281,0,0,0,0-13.469l21.882-37.906a12.973,12.973,0,0,0,17.46-10.222h44.464a9.345,9.345,0,0,0,9.134,7.4,9.216,9.216,0,0,0,2.281-.315L330.4,290.056a12.978,12.978,0,0,0-.645,19.965Zm75.1-19.878a9.344,9.344,0,0,0-9.134,7.4h-44.6a13.009,13.009,0,0,0-16.5-9.688L312.433,249.42a9.289,9.289,0,0,0,0-13.471l22.015-38.135a12.971,12.971,0,0,0,17.3-9.989H395.81a9.323,9.323,0,0,0,9.047,7.126,9.209,9.209,0,0,0,2.58-.408L429.352,232.5a13,13,0,0,0,.12,19.914l-22.017,38.139A9.25,9.25,0,0,0,404.857,290.143ZM506.865,346.66a9.211,9.211,0,0,0-12.407,7.684H450.751A13,13,0,0,0,432.77,343.4L411.3,306.22a9.3,9.3,0,0,0,.093-13.393l22.035-38.168A12.97,12.97,0,0,0,450.6,244.626h44.848a9.31,9.31,0,0,0,8.777,6.252,8.674,8.674,0,0,0,.964-.1L527.68,289.74a12.992,12.992,0,0,0,.769,19.535Zm120-93.424-21.618,37.445a9.188,9.188,0,0,0-12.206,7.414H549.6a12.977,12.977,0,0,0-17.587-11.089l-22.035-38.165a9.27,9.27,0,0,0,.791-13.956l21.576-37.377a13.012,13.012,0,0,0,16.414-9.131H594.3a8.867,8.867,0,0,0,9.592,5.082l22.968,39.777a13.011,13.011,0,0,0,0,20Zm77.22-18.624a9.168,9.168,0,0,0-11.891,5.858H647.909a12.972,12.972,0,0,0-16.19-9.767L608.881,191.15a9.2,9.2,0,0,0,.98-12.771l22.319-38.662a12.954,12.954,0,0,0,15.9-8.965h44.26A9.267,9.267,0,0,0,705,138.192L726.942,176.2a13.005,13.005,0,0,0-1.252,20.984Zm4.218,14.57a9.205,9.205,0,0,0-.483-12.159l21.734-37.645a12.973,12.973,0,0,0,17.4-11.552h46.769a9.307,9.307,0,0,0,9.238,8.322,9.435,9.435,0,0,0,1.337-.133l21.288,36.869a12.976,12.976,0,0,0,.27,19.129L803.3,291.089a9.464,9.464,0,0,0-1.186-.12,9.312,9.312,0,0,0-8.877,6.574H748.9a13,13,0,0,0-17.957-9.14Zm97.351,156.641a9.244,9.244,0,0,0-3.544-.707,9.342,9.342,0,0,0-9.133,7.4H748.425a12.96,12.96,0,0,0-15.84-10.147l-22.4-38.8a9.175,9.175,0,0,0,.184-12.152l22.283-38.6A12.979,12.979,0,0,0,748.961,302.8h44.185a9.135,9.135,0,0,0,11.51,6.454l22.033,38.166a12.993,12.993,0,0,0,.818,20.545Zm99.658,57.2a9.243,9.243,0,0,0-13.5,6.567H847.3a12.941,12.941,0,0,0-15.076-10.311l-22.66-39.249a9.216,9.216,0,0,0,.189-10.922l22.527-39.019a12.988,12.988,0,0,0,15.554-10.217H892.02a9.238,9.238,0,0,0,12.928,5.935l21.692,37.572a13,13,0,0,0,.474,21.88Z" transform="translate(298.091 2580.294) rotate(175)" fill="#ebedf1"/>
  </g>
</svg>
